<svg width="136" height="136" viewBox="0 0 136 136" fill="none" xmlns="http://www.w3.org/2000/svg">
<path fill-rule="evenodd" clip-rule="evenodd" d="M68 135.097C105.213 135.097 135.38 104.93 135.38 67.7168C135.38 30.5035 105.213 0.336304 68 0.336304C30.7867 0.336304 0.619446 30.5035 0.619446 67.7168C0.619446 104.93 30.7867 135.097 68 135.097ZM72.5119 31.7806H63.5336C62.9578 31.9211 62.389 32.0616 61.8202 32.2021C61.2526 32.3423 60.6851 32.4824 60.1105 32.6226C53.517 34.0819 47.8214 37.1689 42.9955 41.8837C37.7768 46.9352 34.3538 52.969 32.8948 60.0692C31.2955 67.7869 31.9689 75.2799 35.2236 82.4924C38.7308 90.238 44.3142 96.0193 51.8336 99.864C56.9401 102.474 62.4113 103.681 68.163 103.653C76.2436 103.625 83.5104 101.211 89.8795 96.2999C97.2025 90.6591 101.776 83.2782 103.431 74.1293C103.506 73.6804 103.631 73.2565 103.755 72.8325C103.818 72.6204 103.88 72.4082 103.936 72.1929V63.2124L103.798 62.6471C103.564 61.692 103.334 60.7501 103.123 59.7886C101.664 53.1935 98.5493 47.5245 93.8636 42.6696C88.7291 37.3934 82.5845 33.9977 75.4019 32.4542C74.723 32.3184 74.0575 32.1558 73.3962 31.9941C73.1009 31.922 72.8064 31.85 72.5119 31.7806ZM51.2163 51.4255C50.1501 56.1122 49.3926 60.9392 49.3365 66.0469H35.1394C35.5042 59.1992 37.7487 53.1935 41.7329 47.8052C44.8753 49.012 47.9617 50.1907 51.2163 51.4255ZM94.2845 47.8333C98.2968 53.1094 100.513 59.1711 100.934 66.0469H86.7371C86.5967 61.0795 85.9795 56.1964 84.8011 51.4816C87.9716 50.2749 91.0298 49.0962 94.2845 47.8333ZM41.7609 87.572C37.7487 82.324 35.5042 76.2622 35.1113 69.3303H49.2803C49.4487 74.3258 50.0098 79.2089 51.2444 83.9237C48.0739 85.1305 45.0156 86.3091 41.7609 87.572ZM94.3126 87.572C91.114 86.3372 88.0277 85.1584 84.9133 83.9799C85.054 83.146 85.209 82.3013 85.3655 81.4484C85.6462 79.9188 85.9317 78.3629 86.1478 76.7954C86.3793 74.9646 86.5318 73.1337 86.6884 71.2554C86.7405 70.6289 86.7932 69.9972 86.8493 69.3584H100.906C100.569 76.2061 98.2968 82.2399 94.3126 87.572ZM66.2831 53.5583C66.5357 54.5406 66.5918 64.5314 66.2831 66.0469C61.7098 66.0469 57.1084 66.0469 52.3386 66.075C52.4789 61.3041 53.04 56.6454 54.2465 52.1832C56.6459 52.4462 58.9971 52.7189 61.3341 52.9899C62.9869 53.1815 64.6326 53.3723 66.2831 53.5583ZM75.6832 82.5222C73.6652 82.2902 71.6471 82.058 69.622 81.8188V69.5549C70.604 69.2181 81.4623 69.1058 83.5666 69.3865C84.0155 71.6316 82.7249 81.0612 81.7148 83.222C79.6996 82.9841 77.6914 82.7532 75.6832 82.5222ZM81.799 52.2113C83.0334 56.5892 83.5666 61.2479 83.7349 66.075C78.9932 66.075 74.3918 66.075 69.6781 66.103V53.5864C71.0201 53.4341 72.3685 53.2817 73.7267 53.1284C76.3724 52.8296 79.0551 52.5265 81.799 52.2113ZM54.2465 83.194C53.012 78.816 52.507 74.1573 52.3105 69.3303H66.3674V81.8469C62.4113 82.2679 58.4271 82.7169 54.2465 83.194ZM69.8184 50.303C69.5098 49.1243 69.4817 36.5234 69.7903 35.0081C71.2774 35.3447 72.4558 36.0745 73.522 36.9725C75.0371 38.1792 76.2155 39.6947 77.2537 41.2943C78.8248 43.6798 79.9752 46.2617 80.873 49.0962C77.1694 49.8258 73.522 50.303 69.8184 50.303ZM66.2271 85.0743C66.5357 86.3091 66.5637 98.938 66.2551 100.397C64.7681 100.061 63.5897 99.3308 62.4954 98.4608C60.9803 97.2542 59.858 95.7106 58.7638 94.139C57.7537 92.6516 55.6774 88.4701 55.2285 86.3091C58.876 85.5514 62.5235 85.1305 66.2271 85.0743ZM66.171 34.98C66.5357 36.0464 66.6479 47.8894 66.3393 50.303C62.5515 50.2749 58.9321 49.8539 55.2847 49.0681C55.3073 48.9326 55.3162 48.8152 55.3243 48.7087C55.3364 48.5507 55.3466 48.4165 55.3969 48.2823C56.6875 44.6901 58.371 41.3224 60.8961 38.4598C62.0184 37.197 63.3091 36.1306 64.8803 35.457C65.1125 35.3486 65.3531 35.2574 65.593 35.1738C65.7879 35.1058 65.9822 35.0428 66.171 34.98ZM69.8745 100.425C69.5098 99.3589 69.3695 87.5439 69.7062 85.1024C73.494 85.1305 77.1133 85.5514 80.7328 86.3091C80.7042 86.5093 80.6901 86.6803 80.6721 86.8333C80.6548 86.9806 80.6338 87.1113 80.5925 87.2352C79.3299 90.6871 77.7306 93.9425 75.3177 96.7209C74.1673 98.068 72.8206 99.2186 71.1652 99.9482C70.8163 100.111 70.4481 100.235 70.0926 100.353C70.0193 100.377 69.9465 100.401 69.8745 100.425ZM43.9214 45.2234C48.0739 40.9015 52.7875 37.8705 58.4551 36.3551C55.5091 39.9473 53.6573 44.0447 52.1141 48.3385C49.2803 47.5526 46.6149 46.6826 43.9214 45.2234ZM77.45 36.4393C80.873 36.4954 88.8975 41.3224 92.0399 45.2794C89.4305 46.6826 86.7932 47.6368 83.9313 48.3665C82.3881 44.0447 80.5364 39.9192 77.45 36.4393ZM58.5112 99.0502C52.7875 97.5629 48.13 94.4758 43.8933 90.182C46.6149 88.7227 49.2523 87.7965 52.1422 87.0388C53.6854 91.3606 55.5372 95.4861 58.5112 99.0502ZM83.9033 87.095C86.7371 87.7684 89.3745 88.7507 92.1802 90.1539C87.9435 94.5038 83.2579 97.5629 77.5623 99.0782C80.4802 95.5142 82.3881 91.4448 83.9033 87.095Z" fill="white"/>
</svg>
