<svg width="36" height="36" viewBox="0 0 36 36" fill="none" xmlns="http://www.w3.org/2000/svg">
  <circle cx="18" cy="18" r="17.5" transform="rotate(180 18 18)" stroke="#E5E5E5"/>
  <path d="M17.6998 19.2431C16.0741 17.6118 14.5467 16.0675 13.033 14.5448C12.624 14.1332 11.9256 14.165 11.5144 14.5744C11.1019 14.9851 11.1351 15.6197 11.5476 16.0304C13.3824 17.8573 15.2224 19.6893 17.0386 21.4976C17.4288 21.886 18.0595 21.8861 18.4494 21.4974C20.1982 19.7542 22.0035 17.9485 23.8159 16.1507C24.2454 15.7247 24.2803 15.0656 23.8391 14.6515C23.4208 14.2588 22.7277 14.2341 22.3198 14.6378C20.8542 16.088 19.3204 17.617 17.6998 19.2431Z" fill="#E5E5E5"/>
</svg>
