<svg width="24" height="24" viewBox="0 0 24 24" fill="none" xmlns="http://www.w3.org/2000/svg">
  <g clip-path="url(#clip0_1_68)">
  <path d="M19 9L22.4641 12H15.5359L19 9Z" fill="#B0ADAD"/>
  <path d="M6 15L9.4641 12H2.5359L6 15Z" fill="#B0ADAD"/>
  <path d="M5 12.5C5 11.0966 5.39377 9.7213 6.13655 8.53055C6.87933 7.3398 7.9413 6.38135 9.20173 5.76417C10.4622 5.14698 11.8705 4.89584 13.2666 5.03928C14.6626 5.18272 15.9905 5.71499 17.0991 6.57558L15.9555 8.04868C15.1226 7.40208 14.1249 7.00215 13.076 6.89438C12.027 6.7866 10.9689 6.9753 10.0218 7.43902C9.07482 7.90274 8.2769 8.62288 7.71881 9.51755C7.16073 10.4122 6.86487 11.4455 6.86487 12.5L5 12.5Z" fill="#B0ADAD"/>
  <path d="M20 11.5C20 12.9034 19.6062 14.2787 18.8634 15.4694C18.1207 16.6602 17.0587 17.6187 15.7983 18.2358C14.5378 18.853 13.1295 19.1042 11.7334 18.9607C10.3374 18.8173 9.00955 18.285 7.90095 17.4244L9.0445 15.9513C9.87744 16.5979 10.8751 16.9978 11.924 17.1056C12.973 17.2134 14.0311 17.0247 14.9782 16.561C15.9252 16.0973 16.7231 15.3771 17.2812 14.4824C17.8393 13.5878 18.1351 12.5545 18.1351 11.5L20 11.5Z" fill="#B0ADAD"/>
  </g>
  <defs>
    <clipPath id="clip0_1_68">
      <rect width="24" height="24" fill="white"/>
    </clipPath>
  </defs>
</svg>
